<svg width="15" height="40" viewBox="0 0 15 40" fill="none" xmlns="http://www.w3.org/2000/svg">
<path d="M1 5.00709V2.99615L1.11829 2.81872C2.22727 1.08872 6.75188 1 7.65385 1C10.1971 1 13.2431 1.47316 14.1746 2.78915L14.3077 2.98137V5.00709L14.0859 5.22889C13.4797 5.83513 13.5832 6.70752 13.8789 8.42274C14.1468 9.87665 14.2902 11.3508 14.3077 12.8291C14.0532 16.253 13.5191 19.6504 12.7108 22.9873C12.0483 25.7239 11.5935 28.5068 11.3504 31.312C11.4496 31.6103 11.6412 31.8693 11.8975 32.0513C12.8291 32.9532 14.3077 34.4615 14.3077 38.7051V39.4444H13.5684C13.1858 39.439 12.809 39.3501 12.4642 39.1842C12.1195 39.0182 11.8151 38.779 11.5722 38.4833C11.4688 38.3247 11.3274 38.1943 11.1608 38.1041C10.9943 38.0139 10.8079 37.9666 10.6185 37.9666C10.4291 37.9666 10.2427 38.0139 10.0762 38.1041C9.90963 38.1943 9.76824 38.3247 9.66479 38.4833C9.42365 38.7827 9.11852 39.0241 8.7718 39.1901C8.42509 39.356 8.04561 39.4421 7.66124 39.4421C7.27687 39.4421 6.89739 39.356 6.55068 39.1901C6.20396 39.0241 5.89883 38.7827 5.65769 38.4833C5.55424 38.3247 5.41285 38.1943 5.24632 38.1041C5.07979 38.0139 4.89338 37.9666 4.70397 37.9666C4.51457 37.9666 4.32817 38.0139 4.16163 38.1041C3.9951 38.1943 3.85371 38.3247 3.75026 38.4833C3.50579 38.7809 3.19901 39.0212 2.85155 39.1873C2.50408 39.3533 2.12441 39.4411 1.73932 39.4444H1V38.7051C1 34.4615 2.47863 32.9532 3.41017 32.0513C3.66649 31.8693 3.85813 31.6103 3.95727 31.312C3.71444 28.5067 3.25969 25.7239 2.59692 22.9873C1.78924 19.6503 1.25516 16.2529 1 12.8291C1.01576 11.3409 1.15922 9.8568 1.42881 8.39316C1.72453 6.6188 1.82804 5.80556 1.2218 5.19932L1 5.00709ZM4.46 33.1011C3.83325 33.6729 3.33315 34.3696 2.9919 35.1463C2.65065 35.923 2.47581 36.7626 2.47863 37.6109L2.65607 37.4335C2.8972 37.1342 3.20234 36.8927 3.54905 36.7268C3.89577 36.5609 4.27525 36.4747 4.65962 36.4747C5.04398 36.4747 5.42347 36.5609 5.77018 36.7268C6.1169 36.8927 6.42203 37.1342 6.66316 37.4335C6.76661 37.5922 6.90801 37.7225 7.07454 37.8127C7.24107 37.9029 7.42748 37.9502 7.61688 37.9502C7.80628 37.9502 7.99269 37.9029 8.15923 37.8127C8.32576 37.7225 8.46715 37.5922 8.5706 37.4335C8.81173 37.1342 9.11687 36.8927 9.46358 36.7268C9.8103 36.5609 10.1898 36.4747 10.5741 36.4747C10.9585 36.4747 11.338 36.5609 11.6847 36.7268C12.0314 36.8927 12.3366 37.1342 12.5777 37.4335L12.8291 37.6109C12.8396 36.7634 12.6727 35.923 12.3391 35.1438C12.0055 34.3645 11.5126 33.6637 10.8921 33.0863C10.6064 32.8793 10.3678 32.6142 10.1919 32.3084C10.0161 32.0026 9.90698 31.663 9.8718 31.312C10.1101 28.4067 10.5748 25.5245 11.2617 22.6915C11.5279 21.3608 11.8088 20.03 12.0454 18.7436H3.17359C3.41017 20.03 3.69111 21.3608 3.95727 22.6915C4.67415 25.5221 5.16853 28.4043 5.4359 31.312C5.40629 31.6632 5.30271 32.0042 5.13197 32.3125C4.96123 32.6209 4.72719 32.8896 4.44522 33.1011H4.46ZM2.47863 4.41564C3.39539 5.5394 3.17359 6.92932 2.89265 8.65932C2.63633 10.0349 2.49782 11.4299 2.47863 12.8291C2.5306 14.3185 2.69869 15.8016 2.98137 17.265H12.3263C12.6093 15.8017 12.7774 14.3185 12.8291 12.8291C12.8107 11.425 12.6722 10.025 12.415 8.64453C12.1341 6.91453 11.9123 5.5394 12.8291 4.41564V3.49889C11.2228 2.69684 9.42942 2.3443 7.63906 2.47863C5.8598 2.34365 4.07706 2.691 2.47863 3.4841V4.41564Z" fill="#98887A" stroke="#98887A" stroke-width="0.3"/>
<path d="M9.8718 7.65385V10.6111C9.8718 11.1993 9.63812 11.7635 9.22217 12.1794C8.80623 12.5954 8.24208 12.8291 7.65385 12.8291C7.06561 12.8291 6.50147 12.5954 6.08552 12.1794C5.66958 11.7635 5.4359 11.1993 5.4359 10.6111V7.65385C5.4359 7.06561 5.66958 6.50147 6.08552 6.08552C6.50147 5.66957 7.06561 5.4359 7.65385 5.4359C8.24208 5.4359 8.80623 5.66957 9.22217 6.08552C9.63812 6.50147 9.8718 7.06561 9.8718 7.65385ZM6.91453 7.65385V10.6111C6.91453 10.8072 6.99242 10.9952 7.13107 11.1339C7.26972 11.2725 7.45777 11.3504 7.65385 11.3504C7.84993 11.3504 8.03797 11.2725 8.17662 11.1339C8.31527 10.9952 8.39316 10.8072 8.39316 10.6111V7.65385C8.39316 7.45777 8.31527 7.26972 8.17662 7.13107C8.03797 6.99242 7.84993 6.91453 7.65385 6.91453C7.45777 6.91453 7.26972 6.99242 7.13107 7.13107C6.99242 7.26972 6.91453 7.45777 6.91453 7.65385Z" fill="#98887A" stroke="#98887A" stroke-width="0.3"/>
</svg>
