<svg width="39" height="28" viewBox="0 0 39 28" fill="none" xmlns="http://www.w3.org/2000/svg">
<path d="M37.0798 22.9286C36.9738 22.9757 36.8606 23.0294 36.7474 23.0733L32.0242 9.91066L33.0417 9.82445L33.0388 9.01439L31.6497 8.90703L31.5684 8.83546C31.5278 8.8013 31.4784 8.77202 31.4276 8.75576L31.2433 8.71346C31.178 8.71346 31.1156 8.7281 31.0793 8.74599L30.9748 8.7525L30.9051 8.84847L20.8013 8.02865L20.8042 7.82207C20.8056 6.2231 20.7098 1 19.5007 1C18.2916 1 18.1987 6.2231 18.1987 7.82207L18.2016 8.04655L8.10941 8.86474L8.08183 8.83871C8.04119 8.8013 7.99184 8.7769 7.94104 8.75901L7.7567 8.71672C7.70299 8.71672 7.65074 8.7281 7.59994 8.74925L7.49688 8.75576L7.38947 8.88914L6.16151 9.02252L6.16006 9.83095L6.98596 9.9009L2.25554 23.0815C2.14232 23.0343 2.03056 22.9855 1.92315 22.9351L1 22.478L1.45432 23.4865C2.39779 25.5881 4.93209 26.9951 7.7567 26.9951C10.5799 26.9951 13.1127 25.5881 14.062 23.4881L14.5178 22.478L13.5917 22.9286C13.4857 22.9822 13.374 23.0294 13.2593 23.0782L8.57824 10.0294L18.3061 10.8199C18.5964 14.6474 19.2496 14.6474 19.5007 14.6474C19.7504 14.6474 20.4065 14.6474 20.6939 10.8378L30.4203 10.0473L25.7407 23.0798C25.6275 23.0343 25.5172 22.9822 25.4083 22.9318L24.4837 22.4812L24.938 23.4914C25.8815 25.5913 28.4158 27 31.2433 27C34.0665 27 36.5964 25.5913 37.5471 23.4897L38 22.4812L37.0798 22.9286ZM12.207 23.493C9.38673 24.4787 6.12812 24.4787 3.30787 23.493L7.75525 11.103L12.207 23.493ZM26.7959 23.493L31.2433 11.103L35.6878 23.493C32.8733 24.482 29.6162 24.482 26.7959 23.493Z" fill="#98887A" stroke="#98887A" stroke-width="0.4"/>
</svg>
